<mxfile host="Electron" agent="Mozilla/5.0 (Windows NT 10.0; Win64; x64) AppleWebKit/537.36 (KHTML, like Gecko) draw.io/26.1.1 Chrome/132.0.6834.210 Electron/34.3.3 Safari/537.36" version="26.1.1">
  <diagram name="第 1 页" id="kEDrvWN_euG7bhp5yZnL">
    <mxGraphModel dx="1436" dy="968" grid="0" gridSize="10" guides="1" tooltips="1" connect="1" arrows="1" fold="1" page="0" pageScale="1" pageWidth="827" pageHeight="1169" math="0" shadow="0">
      <root>
        <mxCell id="0" />
        <mxCell id="1" parent="0" />
        <mxCell id="nvbFOfH96_LNAPdKeJm2-4" value="开始" style="whiteSpace=wrap;strokeWidth=2;" vertex="1" parent="1">
          <mxGeometry x="476" y="20" width="92" height="54" as="geometry" />
        </mxCell>
        <mxCell id="nvbFOfH96_LNAPdKeJm2-28" value="" style="edgeStyle=orthogonalEdgeStyle;rounded=0;orthogonalLoop=1;jettySize=auto;html=1;" edge="1" parent="1" source="nvbFOfH96_LNAPdKeJm2-5" target="nvbFOfH96_LNAPdKeJm2-6">
          <mxGeometry relative="1" as="geometry" />
        </mxCell>
        <mxCell id="nvbFOfH96_LNAPdKeJm2-5" value="用户登录" style="whiteSpace=wrap;strokeWidth=2;" vertex="1" parent="1">
          <mxGeometry x="460" y="124" width="124" height="54" as="geometry" />
        </mxCell>
        <mxCell id="nvbFOfH96_LNAPdKeJm2-31" style="edgeStyle=orthogonalEdgeStyle;rounded=0;orthogonalLoop=1;jettySize=auto;html=1;exitX=0;exitY=0.5;exitDx=0;exitDy=0;" edge="1" parent="1" source="nvbFOfH96_LNAPdKeJm2-6" target="nvbFOfH96_LNAPdKeJm2-7">
          <mxGeometry relative="1" as="geometry" />
        </mxCell>
        <mxCell id="nvbFOfH96_LNAPdKeJm2-44" value="凭证不正确" style="edgeLabel;html=1;align=center;verticalAlign=middle;resizable=0;points=[];" vertex="1" connectable="0" parent="nvbFOfH96_LNAPdKeJm2-31">
          <mxGeometry x="-0.446" y="1" relative="1" as="geometry">
            <mxPoint x="1" as="offset" />
          </mxGeometry>
        </mxCell>
        <mxCell id="nvbFOfH96_LNAPdKeJm2-33" style="edgeStyle=orthogonalEdgeStyle;rounded=0;orthogonalLoop=1;jettySize=auto;html=1;exitX=1;exitY=0.5;exitDx=0;exitDy=0;" edge="1" parent="1" source="nvbFOfH96_LNAPdKeJm2-6" target="nvbFOfH96_LNAPdKeJm2-8">
          <mxGeometry relative="1" as="geometry" />
        </mxCell>
        <mxCell id="nvbFOfH96_LNAPdKeJm2-45" value="凭证真确" style="edgeLabel;html=1;align=center;verticalAlign=middle;resizable=0;points=[];" vertex="1" connectable="0" parent="nvbFOfH96_LNAPdKeJm2-33">
          <mxGeometry x="-0.4602" y="-2" relative="1" as="geometry">
            <mxPoint as="offset" />
          </mxGeometry>
        </mxCell>
        <mxCell id="nvbFOfH96_LNAPdKeJm2-6" value="验证用户信息" style="rhombus;strokeWidth=2;whiteSpace=wrap;" vertex="1" parent="1">
          <mxGeometry x="447" y="228" width="150" height="150" as="geometry" />
        </mxCell>
        <mxCell id="nvbFOfH96_LNAPdKeJm2-32" style="edgeStyle=orthogonalEdgeStyle;rounded=0;orthogonalLoop=1;jettySize=auto;html=1;exitX=0.5;exitY=0;exitDx=0;exitDy=0;entryX=0;entryY=0.5;entryDx=0;entryDy=0;" edge="1" parent="1" source="nvbFOfH96_LNAPdKeJm2-7" target="nvbFOfH96_LNAPdKeJm2-5">
          <mxGeometry relative="1" as="geometry" />
        </mxCell>
        <mxCell id="nvbFOfH96_LNAPdKeJm2-7" value="提示错误信息" style="whiteSpace=wrap;strokeWidth=2;" vertex="1" parent="1">
          <mxGeometry x="240" y="410" width="156" height="54" as="geometry" />
        </mxCell>
        <mxCell id="nvbFOfH96_LNAPdKeJm2-34" style="edgeStyle=orthogonalEdgeStyle;rounded=0;orthogonalLoop=1;jettySize=auto;html=1;" edge="1" parent="1" source="nvbFOfH96_LNAPdKeJm2-8" target="nvbFOfH96_LNAPdKeJm2-12">
          <mxGeometry relative="1" as="geometry" />
        </mxCell>
        <mxCell id="nvbFOfH96_LNAPdKeJm2-35" style="edgeStyle=orthogonalEdgeStyle;rounded=0;orthogonalLoop=1;jettySize=auto;html=1;exitX=0.5;exitY=1;exitDx=0;exitDy=0;" edge="1" parent="1" source="nvbFOfH96_LNAPdKeJm2-8" target="nvbFOfH96_LNAPdKeJm2-11">
          <mxGeometry relative="1" as="geometry" />
        </mxCell>
        <mxCell id="nvbFOfH96_LNAPdKeJm2-36" style="edgeStyle=orthogonalEdgeStyle;rounded=0;orthogonalLoop=1;jettySize=auto;html=1;exitX=0.5;exitY=1;exitDx=0;exitDy=0;" edge="1" parent="1" source="nvbFOfH96_LNAPdKeJm2-8" target="nvbFOfH96_LNAPdKeJm2-13">
          <mxGeometry relative="1" as="geometry" />
        </mxCell>
        <mxCell id="nvbFOfH96_LNAPdKeJm2-37" style="edgeStyle=orthogonalEdgeStyle;rounded=0;orthogonalLoop=1;jettySize=auto;html=1;exitX=0.5;exitY=1;exitDx=0;exitDy=0;" edge="1" parent="1" source="nvbFOfH96_LNAPdKeJm2-8" target="nvbFOfH96_LNAPdKeJm2-9">
          <mxGeometry relative="1" as="geometry" />
        </mxCell>
        <mxCell id="nvbFOfH96_LNAPdKeJm2-38" style="edgeStyle=orthogonalEdgeStyle;rounded=0;orthogonalLoop=1;jettySize=auto;html=1;exitX=0.5;exitY=1;exitDx=0;exitDy=0;" edge="1" parent="1" source="nvbFOfH96_LNAPdKeJm2-8" target="nvbFOfH96_LNAPdKeJm2-10">
          <mxGeometry relative="1" as="geometry" />
        </mxCell>
        <mxCell id="nvbFOfH96_LNAPdKeJm2-8" value="进入用户中心主界面" style="whiteSpace=wrap;strokeWidth=2;" vertex="1" parent="1">
          <mxGeometry x="597" y="410" width="204" height="54" as="geometry" />
        </mxCell>
        <mxCell id="nvbFOfH96_LNAPdKeJm2-39" style="edgeStyle=orthogonalEdgeStyle;rounded=0;orthogonalLoop=1;jettySize=auto;html=1;exitX=0.5;exitY=1;exitDx=0;exitDy=0;" edge="1" parent="1" source="nvbFOfH96_LNAPdKeJm2-9" target="nvbFOfH96_LNAPdKeJm2-14">
          <mxGeometry relative="1" as="geometry" />
        </mxCell>
        <mxCell id="nvbFOfH96_LNAPdKeJm2-9" value="查看个人信息" style="whiteSpace=wrap;strokeWidth=2;" vertex="1" parent="1">
          <mxGeometry x="250" y="540" width="120" height="40" as="geometry" />
        </mxCell>
        <mxCell id="nvbFOfH96_LNAPdKeJm2-40" style="edgeStyle=orthogonalEdgeStyle;rounded=0;orthogonalLoop=1;jettySize=auto;html=1;exitX=0.5;exitY=1;exitDx=0;exitDy=0;" edge="1" parent="1" source="nvbFOfH96_LNAPdKeJm2-10" target="nvbFOfH96_LNAPdKeJm2-14">
          <mxGeometry relative="1" as="geometry" />
        </mxCell>
        <mxCell id="nvbFOfH96_LNAPdKeJm2-10" value="编辑个人信息" style="whiteSpace=wrap;strokeWidth=2;" vertex="1" parent="1">
          <mxGeometry x="396" y="540" width="104" height="40" as="geometry" />
        </mxCell>
        <mxCell id="nvbFOfH96_LNAPdKeJm2-41" style="edgeStyle=orthogonalEdgeStyle;rounded=0;orthogonalLoop=1;jettySize=auto;html=1;exitX=0.5;exitY=1;exitDx=0;exitDy=0;entryX=0.5;entryY=0;entryDx=0;entryDy=0;" edge="1" parent="1" source="nvbFOfH96_LNAPdKeJm2-11" target="nvbFOfH96_LNAPdKeJm2-14">
          <mxGeometry relative="1" as="geometry" />
        </mxCell>
        <mxCell id="nvbFOfH96_LNAPdKeJm2-11" value="查看交通管制信息" style="whiteSpace=wrap;strokeWidth=2;" vertex="1" parent="1">
          <mxGeometry x="520" y="540" width="130" height="40" as="geometry" />
        </mxCell>
        <mxCell id="nvbFOfH96_LNAPdKeJm2-42" style="edgeStyle=orthogonalEdgeStyle;rounded=0;orthogonalLoop=1;jettySize=auto;html=1;exitX=0.5;exitY=1;exitDx=0;exitDy=0;entryX=0.5;entryY=0;entryDx=0;entryDy=0;" edge="1" parent="1" source="nvbFOfH96_LNAPdKeJm2-12" target="nvbFOfH96_LNAPdKeJm2-14">
          <mxGeometry relative="1" as="geometry" />
        </mxCell>
        <mxCell id="nvbFOfH96_LNAPdKeJm2-12" value="上报拥堵信息" style="whiteSpace=wrap;strokeWidth=2;" vertex="1" parent="1">
          <mxGeometry x="660" y="540" width="120" height="40" as="geometry" />
        </mxCell>
        <mxCell id="nvbFOfH96_LNAPdKeJm2-43" style="edgeStyle=orthogonalEdgeStyle;rounded=0;orthogonalLoop=1;jettySize=auto;html=1;exitX=0.5;exitY=1;exitDx=0;exitDy=0;" edge="1" parent="1" source="nvbFOfH96_LNAPdKeJm2-13" target="nvbFOfH96_LNAPdKeJm2-14">
          <mxGeometry relative="1" as="geometry" />
        </mxCell>
        <mxCell id="nvbFOfH96_LNAPdKeJm2-13" value="查看上报历史" style="whiteSpace=wrap;strokeWidth=2;" vertex="1" parent="1">
          <mxGeometry x="790" y="541.5" width="110" height="37" as="geometry" />
        </mxCell>
        <mxCell id="nvbFOfH96_LNAPdKeJm2-14" value="退出" style="whiteSpace=wrap;strokeWidth=2;" vertex="1" parent="1">
          <mxGeometry x="480" y="650" width="92" height="54" as="geometry" />
        </mxCell>
        <mxCell id="nvbFOfH96_LNAPdKeJm2-15" value="结束" style="whiteSpace=wrap;strokeWidth=2;" vertex="1" parent="1">
          <mxGeometry x="480" y="760" width="92" height="54" as="geometry" />
        </mxCell>
        <mxCell id="nvbFOfH96_LNAPdKeJm2-16" value="" style="curved=1;startArrow=none;endArrow=block;exitX=0.5;exitY=1;entryX=0.5;entryY=0;rounded=0;" edge="1" parent="1" source="nvbFOfH96_LNAPdKeJm2-4" target="nvbFOfH96_LNAPdKeJm2-5">
          <mxGeometry relative="1" as="geometry">
            <Array as="points" />
          </mxGeometry>
        </mxCell>
        <mxCell id="nvbFOfH96_LNAPdKeJm2-27" value="" style="curved=1;startArrow=none;endArrow=block;exitX=0.5;exitY=0.99;entryX=0.5;entryY=-0.01;rounded=0;" edge="1" parent="1" source="nvbFOfH96_LNAPdKeJm2-14" target="nvbFOfH96_LNAPdKeJm2-15">
          <mxGeometry relative="1" as="geometry">
            <Array as="points" />
          </mxGeometry>
        </mxCell>
      </root>
    </mxGraphModel>
  </diagram>
</mxfile>
